:version 1.10
:name ASF
:units
  mass 1
  length 1
  angle deg
:documentation
  ASF file generated by Kaydara
:root
  axis xyz
  order  tx ty tz rx ry rz
  position 0 0 0
  orientation 0 0 0
:bonedata
  begin
    id 1
    name RightUpLegDummy
    direction -0.718183 -0.695806 0.00816078
    length 4.904
    axis 0 0 0 xyz
  end
  begin
    id 2
    name RightUpLeg
    direction 3.53373e-006 -0.995788 0.0916898
    length 17.4976
    axis -3.49089 -0.000906625 0.000286804 xyz
    dof rx ry rz
  end
  begin
    id 3
    name RightLeg
    direction 0.00371092 -0.995096 -0.0988419
    length 16.5821
    axis 3.68512 0.0193738 -0.131023 xyz
    dof rx ry rz
  end
  begin
    id 4
    name RightFoot
    direction 0.00079151 -0.46099 0.887405
    length 3.77069
    axis 4.81691e-005 -0.120479 -0.188788 xyz
    dof rx ry rz
  end
  begin
    id 5
    name RightToes
    direction 0 0 0
    length 0
    axis 0 0 0 xyz
    dof rx ry rz
  end
  begin
    id 6
    name SpineDummy
    direction 8.3039e-015 1 4.57515e-016
    length 4.6813
    axis 0 0 0 xyz
  end
  begin
    id 7
    name Spine
    direction -3.15643e-008 0.999988 0.00495137
    length 10.1015
    axis -0.001389 0.000121418 2.40972e-006 xyz
    dof rx ry rz
  end
  begin
    id 8
    name Spine1
    direction 0 0 0
    length 0
    axis -0.001389 0.000121451 1.30017e-006 xyz
    dof rx ry rz
  end
  begin
    id 9
    name HEadDummy
    direction -1.99912e-008 0.999999 0.00127422
    length 3.43865
    axis -0.001389 0.000121451 1.30017e-006 xyz
  end
  begin
    id 10
    name HEad
    direction 0 0 0
    length 0
    axis 0 0 0 xyz
    dof rx ry rz
  end
  begin
    id 11
    name LeftShoulder1Dummy
    direction 0.998891 -0.0402509 -0.0244456
    length 3.5433
    axis -0.001389 0.000121451 1.30017e-006 xyz
  end
  begin
    id 12
    name LeftShoulder1
    direction 0.99951 -0.000327763 0.0313091
    length 4.05031
    axis -0.001389 0.000121451 1.30017e-006 xyz
    dof rx ry rz
  end
  begin
    id 13
    name LeftArm
    direction 0.998561 -0.00100056 -0.0536182
    length 10.3537
    axis -23.1894 0.134784 0.967509 xyz
    dof rx ry rz
  end
  begin
    id 14
    name LeftForeArm
    direction 0.998903 0.00866432 0.046012
    length 8.70632
    axis -9.91835 -0.06569 -0.177794 xyz
    dof rx ry rz
  end
  begin
    id 15
    name LeftHand
    direction 0 0 0
    length 0
    axis 0 0 0 xyz
    dof rx ry rz
  end
  begin
    id 16
    name RightShoulderDummy
    direction -0.998891 -0.0402509 -0.0244414
    length 3.5433
    axis -0.001389 0.000121451 1.30017e-006 xyz
  end
  begin
    id 17
    name RightShoulder
    direction -0.99951 -0.000327807 0.0313133
    length 4.05031
    axis 0.215806 0.000203643 -0.0068026 xyz
    dof rx ry rz
  end
  begin
    id 18
    name RightArm
    direction -0.998573 -0.000999564 -0.053403
    length 10.3947
    axis -23.2009 -0.134239 -0.964101 xyz
    dof rx ry rz
  end
  begin
    id 19
    name RightForeArm
    direction -0.998898 0.00868028 0.0461306
    length 8.68355
    axis -9.92322 0.0658061 0.178868 xyz
    dof rx ry rz
  end
  begin
    id 20
    name RightHand
    direction 0 0 0
    length 0
    axis 0 0 0 xyz
    dof rx ry rz
  end
  begin
    id 21
    name LeftUpLegDummy
    direction 0.718183 -0.695806 0.00816078
    length 4.904
    axis 0 0 0 xyz
  end
  begin
    id 22
    name LeftUpLeg
    direction -6.81752e-006 -0.995793 0.0916337
    length 17.4976
    axis -3.48766 0.00143442 -0.000524262 xyz
    dof rx ry rz
  end
  begin
    id 23
    name LeftLeg
    direction -0.00601358 -0.995091 -0.0987824
    length 16.5821
    axis 3.68178 -0.00654042 -0.000285133 xyz
    dof rx ry rz
  end
  begin
    id 24
    name LeftFoot
    direction -0.00417578 -0.460984 0.887399
    length 3.77069
    axis 1.87233e-006 4.66016e-005 -8.6538e-006 xyz
    dof rx ry rz
  end
  begin
    id 25
    name LeftToes
    direction 0 0 0
    length 0
    axis 0 0 0 xyz
    dof rx ry rz
  end
:hierarchy
  begin
    root RightUpLegDummy SpineDummy LeftUpLegDummy
    RightUpLegDummy RightUpLeg
    RightUpLeg RightLeg
    RightLeg RightFoot
    RightFoot RightToes
    SpineDummy Spine
    Spine Spine1
    Spine1 HEadDummy LeftShoulder1Dummy RightShoulderDummy
    HEadDummy HEad
    LeftShoulder1Dummy LeftShoulder1
    LeftShoulder1 LeftArm
    LeftArm LeftForeArm
    LeftForeArm LeftHand
    RightShoulderDummy RightShoulder
    RightShoulder RightArm
    RightArm RightForeArm
    RightForeArm RightHand
    LeftUpLegDummy LeftUpLeg
    LeftUpLeg LeftLeg
    LeftLeg LeftFoot
    LeftFoot LeftToes
  end

:SAMPLES-PER-SECOND 30
:FULLY-SPECIFIED
:DEGREES
455
root  10.785 39.3145 14.0219 174.115 54.4827 177.213
RightUpLeg  -3.37177 -35.8231 -13.5916
RightLeg  29.4186 -16.3437 -9.97177
RightFoot  -9.76726 -0.162911 7.01308
RightToes  0.000481921 0.542163 -0.142578
Spine  21.4973 -0.668367 2.0708
Spine1  3.74767 -1.47558 5.2877
HEad  -4.2796 -14.0319 5.72496
LeftShoulder1  6.27284 -13.8532 -30.0814
LeftArm  8.87908 -32.2172 -57.4711
LeftForeArm  -177.405 -65.8663 -159.538
LeftHand  -0.25398 0.0180481 5.50724
RightShoulder  2.59117 5.97079 20.9118
RightArm  -36.6599 13.6206 23.764
RightForeArm  169.458 61.6194 160.823
RightHand  -0.0352246 -5.82819 4.94943
LeftUpLeg  -16.1237 -3.02123 3.37855
LeftLeg  18.7737 -8.23675 -2.79637
LeftFoot  1.62586 0.605548 -5.41642
LeftToes  1.06245e-005 4.65869e-005 -8.65517e-006
456
root  10.3115 39.1532 14.3323 171.953 55.6671 174.775
RightUpLeg  -6.60022 -33.668 -13.764
RightLeg  32.547 -16.3574 -11.1927
RightFoot  -9.92233 -0.145089 6.23235
RightToes  0.000481921 0.542163 -0.142578
Spine  24.5653 0.581693 10.2623
Spine1  3.82429 4.31117 -7.06311
HEad  -6.04305 -18.8051 8.32087
LeftShoulder1  6.79332 -15.1404 -30.3733
LeftArm  8.19609 -23.9864 -50.4573
LeftForeArm  -176.66 -61.5199 -162.992
LeftHand  -0.25398 0.0180481 5.50724
RightShoulder  1.1897 2.3063 13.345
RightArm  -47.6528 22.6977 14.2969
RightForeArm  104.865 77.6641 94.8949
RightHand  -0.112174 -3.80421 -0.373277
LeftUpLeg  -16.645 -2.769 2.18274
LeftLeg  18.7147 -7.05774 -2.33425
LeftFoot  1.78056 0.653846 -5.77895
LeftToes  1.06245e-005 4.65869e-005 -8.65517e-006
457
root  9.84988 38.7879 14.6238 169.313 58.4418 170.82
RightUpLeg  -12.1356 -30.5979 -13.708
RightLeg  37.1642 -15.4627 -12.4844
RightFoot  -10.865 -0.097678 5.74835
RightToes  0.000481921 0.542163 -0.142578
Spine  27.5912 1.27141 15.4238
Spine1  3.47274 8.65316 -16.8338
HEad  -7.05142 -20.9703 8.42442
LeftShoulder1  6.98849 -15.2639 -31.1871
LeftArm  5.67004 -14.6976 -42.7671
LeftForeArm  -174.396 -56.4244 -166.219
LeftHand  -0.25398 0.0180481 5.50724
RightShoulder  0.297795 -0.893579 3.50594
RightArm  -54.9494 33.0348 5.89133
RightForeArm  21.7993 48.8553 8.40908
RightHand  -0.75735 4.21833 -9.72885
LeftUpLeg  -18.9821 -0.474543 0.760223
LeftLeg  20.8618 -5.96475 -2.18456
LeftFoot  0.812446 0.710383 -6.72537
LeftToes  1.06245e-005 4.65869e-005 -8.65517e-006
458
root  9.60066 38.3156 14.9318 167.419 60.2138 167.076
RightUpLeg  -17.6396 -28.7255 -13.5004
RightLeg  41.814 -14.3851 -13.667
RightFoot  -12.37 -0.0327079 5.67321
RightToes  0.000481921 0.542163 -0.142578
Spine  29.4442 1.93884 16.4191
Spine1  3.25491 10.8112 -21.2814
HEad  -8.7741 -20.9561 8.44093
LeftShoulder1  6.72607 -14.3004 -31.7349
LeftArm  4.05202 -4.92247 -38.91
LeftForeArm  -172.268 -52.1254 -168.363
LeftHand  -0.25398 0.0180481 5.50724
RightShoulder  0.0201987 -2.73615 -4.93925
RightArm  -56.9193 36.3045 2.29193
RightForeArm  16.2863 26.8669 4.12472
RightHand  -1.72039 8.86052 -14.5493
LeftUpLeg  -22.4445 2.01306 -0.376223
LeftLeg  24.0725 -5.85293 -2.53269
LeftFoot  -0.616161 0.761678 -8.06917
LeftToes  1.06245e-005 4.65869e-005 -8.65517e-006
459
root  9.59205 37.8787 15.2093 168.04 59.3443 166.667
RightUpLeg  -20.571 -29.1917 -12.9556
RightLeg  45.3761 -13.8806 -14.8904
RightFoot  -13.9459 0.0377221 5.81414
RightToes  0.000481921 0.542163 -0.142578
Spine  29.7423 2.25998 14.7155
Spine1  4.19583 10.6564 -20.0225
HEad  -11.5672 -19.413 10.5184
LeftShoulder1  6.60669 -13.5843 -32.6195
LeftArm  3.51781 3.57842 -38.4799
LeftForeArm  -171.263 -49.0439 -169.625
LeftHand  -0.25398 0.0180481 5.50724
RightShoulder  -0.0154132 -3.57782 -4.32134
RightArm  -56.2884 32.915 4.72189
RightForeArm  15.8147 41.5506 9.81053
RightHand  -1.8439 8.43025 -15.8986
LeftUpLeg  -25.5134 2.35514 -0.439879
LeftLeg  27.3179 -6.41697 -3.25812
LeftFoot  -1.943 0.758386 -9.06489
LeftToes  1.06245e-005 4.65869e-005 -8.65517e-006
460
root  9.72146 37.6067 15.3777 169.662 57.3913 168.729
RightUpLeg  -20.4687 -30.4672 -12.3841
RightLeg  47.2992 -13.9739 -15.9661
RightFoot  -15.0763 0.0909103 5.92656
RightToes  0.000481921 0.542163 -0.142578
Spine  29.1419 1.95506 11.7885
Spine1  6.33411 8.74797 -15.1667
HEad  -13.3731 -16.6693 12.4607
LeftShoulder1  7.1469 -13.9709 -34.82
LeftArm  3.13926 7.2104 -38.5014
LeftForeArm  -171.36 -46.9105 -170.372
LeftHand  -0.25398 0.0180481 5.50724
RightShoulder  0.165084 -2.47457 5.64086
RightArm  -54.2153 29.5409 10.6092
RightForeArm  44.9735 73.3885 43.7379
RightHand  -1.08489 3.5373 -14.0957
LeftUpLeg  -26.8396 0.874034 0.493003
LeftLeg  29.7746 -6.68259 -3.77864
LeftFoot  -2.87578 0.717413 -9.44201
LeftToes  1.06245e-005 4.65869e-005 -8.65517e-006
461
root  9.87991 37.5953 15.4032 169.654 57.6591 169.86
RightUpLeg  -19.0126 -29.9607 -12.117
RightLeg  47.2077 -14.1521 -16.1038
RightFoot  -15.3903 0.0996484 5.77089
RightToes  0.000481921 0.542163 -0.142578
Spine  28.5612 1.391 8.70086
Spine1  8.23206 6.42705 -10.5681
HEad  -12.577 -13.3124 11.5111
LeftShoulder1  7.89024 -14.6807 -37.2718
LeftArm  3.68582 3.52314 -38.4541
LeftForeArm  -170.338 -46.3948 -170.608
LeftHand  -0.25398 0.0180481 5.50724
RightShoulder  1.32981 2.03368 16.9937
RightArm  -44.377 27.9567 20.2468
RightForeArm  159.502 70.5121 153.772
RightHand  -0.330877 -1.22752 -9.15465
LeftUpLeg  -25.9962 0.017579 1.51187
LeftLeg  30.5422 -5.89438 -3.40867
LeftFoot  -3.30579 0.683066 -9.42733
LeftToes  1.06245e-005 4.65869e-005 -8.65517e-006
462
root  9.997 37.8454 15.2701 167.977 61.4962 168.967
RightUpLeg  -17.8473 -27.4004 -11.8617
RightLeg  44.989 -13.705 -14.5403
RightFoot  -14.8001 0.0553266 5.13429
RightToes  0.000481921 0.542163 -0.142578
Spine  28.0963 1.15154 6.41247
Spine1  8.90148 5.04413 -8.24054
HEad  -10.1776 -9.64677 8.35857
LeftShoulder1  8.01385 -14.8095 -37.6169
LeftArm  5.17458 -6.11508 -39.8985
LeftForeArm  -168.113 -47.881 -170.238
LeftHand  -0.25398 0.0180481 5.50724
RightShoulder  3.65684 7.66748 26.6999
RightArm  -30.9437 25.2639 30.9899
RightForeArm  -176.04 56.078 166.825
RightHand  -0.129861 -1.90645 -4.20156
LeftUpLeg  -23.5959 1.1109 2.189
LeftLeg  29.3573 -3.89451 -2.03971
LeftFoot  -3.28203 0.652945 -8.97992
LeftToes  1.06245e-005 4.65869e-005 -8.65517e-006
463
root  10.0235 38.2153 14.9663 165.427 67.3705 166.806
RightUpLeg  -17.1042 -24.7871 -11.4859
RightLeg  41.3276 -12.017 -11.3938
RightFoot  -13.4886 -0.0137555 4.10851
RightToes  0.000481921 0.542163 -0.142578
Spine  27.3301 1.18324 4.98526
Spine1  8.94063 4.44196 -7.21215
HEad  -7.66344 -4.97999 5.36241
LeftShoulder1  7.46718 -14.8333 -34.6587
LeftArm  4.88685 -19.2798 -42.5959
LeftForeArm  -169.565 -50.7475 -169.123
LeftHand  -0.25398 0.0180481 5.50724
RightShoulder  5.86521 11.3715 33.639
RightArm  -21.4657 21.3924 40.9417
RightForeArm  -167.475 50.663 169.359
RightHand  -0.0693446 -1.48759 -1.76611
LeftUpLeg  -20.7261 3.33766 2.73913
LeftLeg  27.3218 -1.01164 -0.234385
LeftFoot  -3.09067 0.595946 -7.99836
LeftToes  1.06245e-005 4.65869e-005 -8.65517e-006
464
root  9.91506 38.5095 14.5448 162.546 73.4554 164.269
RightUpLeg  -16.7522 -23.1775 -10.8815
RightLeg  37.7551 -9.30028 -7.91366
RightFoot  -11.8676 -0.0660775 3.21339
RightToes  0.000481921 0.542163 -0.142578
Spine  26.3894 0.991518 3.16713
Spine1  8.55122 3.18781 -5.14304
HEad  -4.86814 1.21801 2.91697
LeftShoulder1  6.68194 -15.3728 -29.3407
LeftArm  0.114299 -33.483 -42.0941
LeftForeArm  -175.429 -55.166 -167.174
LeftHand  -0.25398 0.0180481 5.50724
RightShoulder  6.46149 12.5941 34.2036
RightArm  -15.7805 21.1625 51.5408
RightForeArm  -171.576 52.1614 168.44
RightHand  -0.0959897 -2.55056 -3.2998
LeftUpLeg  -18.5898 5.74815 3.45188
LeftLeg  26.2581 1.97587 1.4047
LeftFoot  -3.10152 0.525264 -7.02696
LeftToes  1.06245e-005 4.65869e-005 -8.65517e-006
465
root  9.64933 38.6006 14.1309 161.111 78.9825 163.257
RightUpLeg  -17.1047 -21.7474 -9.57397
RightLeg  35.6076 -6.83462 -5.48307
RightFoot  -10.456 -0.0945587 2.96708
RightToes  0.000481921 0.542163 -0.142578
Spine  26.5573 0.723039 -0.55778
Spine1  6.34643 0.451489 0.734241
HEad  -1.24965 7.80021 -0.10574
LeftShoulder1  5.88018 -16.0107 -23.8545
LeftArm  -11.6826 -45.5408 -32.879
LeftForeArm  171.27 -67.0852 -155.407
LeftHand  -0.25398 0.0180481 5.50724
RightShoulder  5.60107 12.4549 29.0739
RightArm  -10.6809 27.3035 61.8206
RightForeArm  175.629 61.5192 161.928
RightHand  -0.231889 -2.26432 -7.69093
LeftUpLeg  -18.007 8.31403 4.75021
LeftLeg  27.4113 4.0264 2.60641
LeftFoot  -3.58553 0.472925 -6.6599
LeftToes  1.06245e-005 4.65869e-005 -8.65517e-006
466
root  9.27344 38.4403 13.7847 169.725 83.015 172.193
RightUpLeg  -18.2334 -20.4524 -7.17865
RightLeg  35.2819 -5.55803 -4.47258
RightFoot  -9.6601 -0.113963 3.30082
RightToes  0.000481921 0.542163 -0.142578
Spine  28.5572 0.722899 -6.31121
Spine1  1.92966 -3.36337 12.0668
HEad  2.54361 13.3605 -3.86921
LeftShoulder1  4.82247 -15.532 -18.7332
LeftArm  -29.5233 -53.9824 -14.176
LeftForeArm  90.5006 -77.6557 -68.4059
LeftHand  -0.25398 0.0180481 5.50724
RightShoulder  4.35966 11.4254 22.9529
RightArm  -2.38184 38.4831 70.0149
RightForeArm  149.832 75.3114 138.112
RightHand  -0.57647 0.965319 -10.7985
LeftUpLeg  -19.369 10.2772 6.97223
LeftLeg  30.8943 4.83379 3.45977
LeftFoot  -4.70856 0.408473 -6.55455
LeftToes  1.06245e-005 4.65869e-005 -8.65517e-006
